<mxfile host="app.diagrams.net" agent="Mozilla/5.0 (Windows NT 10.0; Win64; x64) AppleWebKit/537.36 (KHTML, like Gecko) Chrome/128.0.0.0 Safari/537.36" version="24.7.14">
  <diagram name="Page-1" id="abBmpKpvQ-5i7o5CwdEH">
    <mxGraphModel dx="1289" dy="940" grid="1" gridSize="10" guides="1" tooltips="1" connect="1" arrows="1" fold="1" page="1" pageScale="1" pageWidth="850" pageHeight="1100" math="0" shadow="0">
      <root>
        <mxCell id="0" />
        <mxCell id="1" parent="0" />
        <mxCell id="M_QFJIrPNWLJ5PNfMRwV-1" value="" style="rounded=0;whiteSpace=wrap;html=1;" vertex="1" parent="1">
          <mxGeometry x="40" y="40" width="720" height="1040" as="geometry" />
        </mxCell>
        <mxCell id="M_QFJIrPNWLJ5PNfMRwV-2" value="" style="rounded=1;whiteSpace=wrap;html=1;fillColor=#dae8fc;strokeColor=#6c8ebf;" vertex="1" parent="1">
          <mxGeometry x="340" y="990" width="120" height="60" as="geometry" />
        </mxCell>
        <mxCell id="M_QFJIrPNWLJ5PNfMRwV-3" value="" style="rounded=1;whiteSpace=wrap;html=1;fillColor=#dae8fc;strokeColor=#6c8ebf;" vertex="1" parent="1">
          <mxGeometry x="60" y="850" width="120" height="60" as="geometry" />
        </mxCell>
        <mxCell id="M_QFJIrPNWLJ5PNfMRwV-4" value="" style="rounded=1;whiteSpace=wrap;html=1;fillColor=#dae8fc;strokeColor=#6c8ebf;" vertex="1" parent="1">
          <mxGeometry x="200" y="850" width="120" height="60" as="geometry" />
        </mxCell>
        <mxCell id="M_QFJIrPNWLJ5PNfMRwV-5" value="" style="rounded=1;whiteSpace=wrap;html=1;fillColor=#dae8fc;strokeColor=#6c8ebf;" vertex="1" parent="1">
          <mxGeometry x="340" y="850" width="120" height="60" as="geometry" />
        </mxCell>
        <mxCell id="M_QFJIrPNWLJ5PNfMRwV-6" value="" style="rounded=1;whiteSpace=wrap;html=1;fillColor=#dae8fc;strokeColor=#6c8ebf;" vertex="1" parent="1">
          <mxGeometry x="480" y="850" width="120" height="60" as="geometry" />
        </mxCell>
        <mxCell id="M_QFJIrPNWLJ5PNfMRwV-7" value="" style="rounded=1;whiteSpace=wrap;html=1;fillColor=#dae8fc;strokeColor=#6c8ebf;" vertex="1" parent="1">
          <mxGeometry x="620" y="850" width="120" height="60" as="geometry" />
        </mxCell>
        <mxCell id="M_QFJIrPNWLJ5PNfMRwV-11" value="" style="rounded=1;whiteSpace=wrap;html=1;fillColor=#d5e8d4;strokeColor=#82b366;" vertex="1" parent="1">
          <mxGeometry x="200" y="710" width="120" height="60" as="geometry" />
        </mxCell>
        <mxCell id="M_QFJIrPNWLJ5PNfMRwV-12" value="" style="rounded=1;whiteSpace=wrap;html=1;fillColor=#d5e8d4;strokeColor=#82b366;" vertex="1" parent="1">
          <mxGeometry x="340" y="710" width="120" height="60" as="geometry" />
        </mxCell>
        <mxCell id="M_QFJIrPNWLJ5PNfMRwV-13" value="" style="rounded=1;whiteSpace=wrap;html=1;fillColor=#d5e8d4;strokeColor=#82b366;" vertex="1" parent="1">
          <mxGeometry x="480" y="710" width="120" height="60" as="geometry" />
        </mxCell>
        <mxCell id="M_QFJIrPNWLJ5PNfMRwV-15" value="" style="rounded=1;whiteSpace=wrap;html=1;fillColor=#dae8fc;strokeColor=#6c8ebf;" vertex="1" parent="1">
          <mxGeometry x="60" y="580" width="120" height="60" as="geometry" />
        </mxCell>
        <mxCell id="M_QFJIrPNWLJ5PNfMRwV-16" value="" style="rounded=1;whiteSpace=wrap;html=1;fillColor=#dae8fc;strokeColor=#6c8ebf;" vertex="1" parent="1">
          <mxGeometry x="200" y="580" width="120" height="60" as="geometry" />
        </mxCell>
        <mxCell id="M_QFJIrPNWLJ5PNfMRwV-17" value="" style="rounded=1;whiteSpace=wrap;html=1;fillColor=#dae8fc;strokeColor=#6c8ebf;" vertex="1" parent="1">
          <mxGeometry x="340" y="580" width="120" height="60" as="geometry" />
        </mxCell>
        <mxCell id="M_QFJIrPNWLJ5PNfMRwV-18" value="" style="rounded=1;whiteSpace=wrap;html=1;fillColor=#dae8fc;strokeColor=#6c8ebf;" vertex="1" parent="1">
          <mxGeometry x="480" y="580" width="120" height="60" as="geometry" />
        </mxCell>
        <mxCell id="M_QFJIrPNWLJ5PNfMRwV-19" value="" style="rounded=1;whiteSpace=wrap;html=1;fillColor=#dae8fc;strokeColor=#6c8ebf;" vertex="1" parent="1">
          <mxGeometry x="620" y="580" width="120" height="60" as="geometry" />
        </mxCell>
        <mxCell id="M_QFJIrPNWLJ5PNfMRwV-20" value="" style="rounded=1;whiteSpace=wrap;html=1;fillColor=#d5e8d4;strokeColor=#82b366;" vertex="1" parent="1">
          <mxGeometry x="60" y="440" width="120" height="60" as="geometry" />
        </mxCell>
        <mxCell id="M_QFJIrPNWLJ5PNfMRwV-21" value="" style="rounded=1;whiteSpace=wrap;html=1;fillColor=#d5e8d4;strokeColor=#82b366;" vertex="1" parent="1">
          <mxGeometry x="200" y="440" width="120" height="60" as="geometry" />
        </mxCell>
        <mxCell id="M_QFJIrPNWLJ5PNfMRwV-22" value="" style="rounded=1;whiteSpace=wrap;html=1;fillColor=#d5e8d4;strokeColor=#82b366;" vertex="1" parent="1">
          <mxGeometry x="340" y="440" width="120" height="60" as="geometry" />
        </mxCell>
        <mxCell id="M_QFJIrPNWLJ5PNfMRwV-23" value="" style="rounded=1;whiteSpace=wrap;html=1;fillColor=#d5e8d4;strokeColor=#82b366;" vertex="1" parent="1">
          <mxGeometry x="480" y="440" width="120" height="60" as="geometry" />
        </mxCell>
        <mxCell id="M_QFJIrPNWLJ5PNfMRwV-24" value="" style="rounded=1;whiteSpace=wrap;html=1;fillColor=#d5e8d4;strokeColor=#82b366;" vertex="1" parent="1">
          <mxGeometry x="620" y="440" width="120" height="60" as="geometry" />
        </mxCell>
        <mxCell id="M_QFJIrPNWLJ5PNfMRwV-26" value="" style="rounded=1;whiteSpace=wrap;html=1;fillColor=#dae8fc;strokeColor=#6c8ebf;" vertex="1" parent="1">
          <mxGeometry x="200" y="300" width="120" height="60" as="geometry" />
        </mxCell>
        <mxCell id="M_QFJIrPNWLJ5PNfMRwV-27" value="" style="rounded=1;whiteSpace=wrap;html=1;fillColor=#dae8fc;strokeColor=#6c8ebf;" vertex="1" parent="1">
          <mxGeometry x="340" y="300" width="120" height="60" as="geometry" />
        </mxCell>
        <mxCell id="M_QFJIrPNWLJ5PNfMRwV-28" value="" style="rounded=1;whiteSpace=wrap;html=1;fillColor=#dae8fc;strokeColor=#6c8ebf;" vertex="1" parent="1">
          <mxGeometry x="480" y="300" width="120" height="60" as="geometry" />
        </mxCell>
        <mxCell id="M_QFJIrPNWLJ5PNfMRwV-30" value="" style="rounded=1;whiteSpace=wrap;html=1;fillColor=#d5e8d4;strokeColor=#82b366;" vertex="1" parent="1">
          <mxGeometry x="60" y="170" width="120" height="60" as="geometry" />
        </mxCell>
        <mxCell id="M_QFJIrPNWLJ5PNfMRwV-31" value="" style="rounded=1;whiteSpace=wrap;html=1;fillColor=#d5e8d4;strokeColor=#82b366;" vertex="1" parent="1">
          <mxGeometry x="200" y="170" width="120" height="60" as="geometry" />
        </mxCell>
        <mxCell id="M_QFJIrPNWLJ5PNfMRwV-32" value="" style="rounded=1;whiteSpace=wrap;html=1;fillColor=#d5e8d4;strokeColor=#82b366;" vertex="1" parent="1">
          <mxGeometry x="340" y="170" width="120" height="60" as="geometry" />
        </mxCell>
        <mxCell id="M_QFJIrPNWLJ5PNfMRwV-33" value="" style="rounded=1;whiteSpace=wrap;html=1;fillColor=#d5e8d4;strokeColor=#82b366;" vertex="1" parent="1">
          <mxGeometry x="480" y="170" width="120" height="60" as="geometry" />
        </mxCell>
        <mxCell id="M_QFJIrPNWLJ5PNfMRwV-34" value="" style="rounded=1;whiteSpace=wrap;html=1;fillColor=#d5e8d4;strokeColor=#82b366;" vertex="1" parent="1">
          <mxGeometry x="620" y="170" width="120" height="60" as="geometry" />
        </mxCell>
        <mxCell id="M_QFJIrPNWLJ5PNfMRwV-35" value="" style="rounded=1;whiteSpace=wrap;html=1;fillColor=#d5e8d4;strokeColor=#82b366;" vertex="1" parent="1">
          <mxGeometry x="340" y="60" width="120" height="60" as="geometry" />
        </mxCell>
        <mxCell id="M_QFJIrPNWLJ5PNfMRwV-45" value="0,0" style="text;html=1;align=center;verticalAlign=middle;whiteSpace=wrap;rounded=0;" vertex="1" parent="1">
          <mxGeometry x="370" y="1005" width="60" height="30" as="geometry" />
        </mxCell>
        <mxCell id="M_QFJIrPNWLJ5PNfMRwV-46" value="0,0" style="text;html=1;align=center;verticalAlign=middle;whiteSpace=wrap;rounded=0;" vertex="1" parent="1">
          <mxGeometry x="90" y="865" width="60" height="30" as="geometry" />
        </mxCell>
        <mxCell id="M_QFJIrPNWLJ5PNfMRwV-47" value="0,0" style="text;html=1;align=center;verticalAlign=middle;whiteSpace=wrap;rounded=0;" vertex="1" parent="1">
          <mxGeometry x="230" y="865" width="60" height="30" as="geometry" />
        </mxCell>
        <mxCell id="M_QFJIrPNWLJ5PNfMRwV-48" value="0,0" style="text;html=1;align=center;verticalAlign=middle;whiteSpace=wrap;rounded=0;" vertex="1" parent="1">
          <mxGeometry x="370" y="865" width="60" height="30" as="geometry" />
        </mxCell>
        <mxCell id="M_QFJIrPNWLJ5PNfMRwV-49" value="0,0" style="text;html=1;align=center;verticalAlign=middle;whiteSpace=wrap;rounded=0;" vertex="1" parent="1">
          <mxGeometry x="510" y="865" width="60" height="30" as="geometry" />
        </mxCell>
        <mxCell id="M_QFJIrPNWLJ5PNfMRwV-50" value="0,0" style="text;html=1;align=center;verticalAlign=middle;whiteSpace=wrap;rounded=0;" vertex="1" parent="1">
          <mxGeometry x="650" y="865" width="60" height="30" as="geometry" />
        </mxCell>
        <mxCell id="M_QFJIrPNWLJ5PNfMRwV-51" value="0,0" style="text;html=1;align=center;verticalAlign=middle;whiteSpace=wrap;rounded=0;" vertex="1" parent="1">
          <mxGeometry x="230" y="725" width="60" height="30" as="geometry" />
        </mxCell>
        <mxCell id="M_QFJIrPNWLJ5PNfMRwV-52" value="0,0" style="text;html=1;align=center;verticalAlign=middle;whiteSpace=wrap;rounded=0;" vertex="1" parent="1">
          <mxGeometry x="370" y="725" width="60" height="30" as="geometry" />
        </mxCell>
        <mxCell id="M_QFJIrPNWLJ5PNfMRwV-53" value="0,0" style="text;html=1;align=center;verticalAlign=middle;whiteSpace=wrap;rounded=0;" vertex="1" parent="1">
          <mxGeometry x="510" y="725" width="60" height="30" as="geometry" />
        </mxCell>
        <mxCell id="M_QFJIrPNWLJ5PNfMRwV-54" value="0,0" style="text;html=1;align=center;verticalAlign=middle;whiteSpace=wrap;rounded=0;" vertex="1" parent="1">
          <mxGeometry x="90" y="595" width="60" height="30" as="geometry" />
        </mxCell>
        <mxCell id="M_QFJIrPNWLJ5PNfMRwV-55" value="0,0" style="text;html=1;align=center;verticalAlign=middle;whiteSpace=wrap;rounded=0;" vertex="1" parent="1">
          <mxGeometry x="230" y="595" width="60" height="30" as="geometry" />
        </mxCell>
        <mxCell id="M_QFJIrPNWLJ5PNfMRwV-56" value="0,0" style="text;html=1;align=center;verticalAlign=middle;whiteSpace=wrap;rounded=0;" vertex="1" parent="1">
          <mxGeometry x="370" y="595" width="60" height="30" as="geometry" />
        </mxCell>
        <mxCell id="M_QFJIrPNWLJ5PNfMRwV-57" value="0,0" style="text;html=1;align=center;verticalAlign=middle;whiteSpace=wrap;rounded=0;" vertex="1" parent="1">
          <mxGeometry x="510" y="595" width="60" height="30" as="geometry" />
        </mxCell>
        <mxCell id="M_QFJIrPNWLJ5PNfMRwV-58" value="0,0" style="text;html=1;align=center;verticalAlign=middle;whiteSpace=wrap;rounded=0;" vertex="1" parent="1">
          <mxGeometry x="650" y="595" width="60" height="30" as="geometry" />
        </mxCell>
        <mxCell id="M_QFJIrPNWLJ5PNfMRwV-59" value="0,0" style="text;html=1;align=center;verticalAlign=middle;whiteSpace=wrap;rounded=0;" vertex="1" parent="1">
          <mxGeometry x="650" y="455" width="60" height="30" as="geometry" />
        </mxCell>
        <mxCell id="M_QFJIrPNWLJ5PNfMRwV-60" value="0,0" style="text;html=1;align=center;verticalAlign=middle;whiteSpace=wrap;rounded=0;" vertex="1" parent="1">
          <mxGeometry x="510" y="455" width="60" height="30" as="geometry" />
        </mxCell>
        <mxCell id="M_QFJIrPNWLJ5PNfMRwV-61" value="0,0" style="text;html=1;align=center;verticalAlign=middle;whiteSpace=wrap;rounded=0;" vertex="1" parent="1">
          <mxGeometry x="370" y="455" width="60" height="30" as="geometry" />
        </mxCell>
        <mxCell id="M_QFJIrPNWLJ5PNfMRwV-62" value="0,0" style="text;html=1;align=center;verticalAlign=middle;whiteSpace=wrap;rounded=0;" vertex="1" parent="1">
          <mxGeometry x="230" y="455" width="60" height="30" as="geometry" />
        </mxCell>
        <mxCell id="M_QFJIrPNWLJ5PNfMRwV-63" value="0,0" style="text;html=1;align=center;verticalAlign=middle;whiteSpace=wrap;rounded=0;" vertex="1" parent="1">
          <mxGeometry x="90" y="455" width="60" height="30" as="geometry" />
        </mxCell>
        <mxCell id="M_QFJIrPNWLJ5PNfMRwV-64" value="0,0" style="text;html=1;align=center;verticalAlign=middle;whiteSpace=wrap;rounded=0;" vertex="1" parent="1">
          <mxGeometry x="230" y="315" width="60" height="30" as="geometry" />
        </mxCell>
        <mxCell id="M_QFJIrPNWLJ5PNfMRwV-65" value="0,0" style="text;html=1;align=center;verticalAlign=middle;whiteSpace=wrap;rounded=0;" vertex="1" parent="1">
          <mxGeometry x="370" y="315" width="60" height="30" as="geometry" />
        </mxCell>
        <mxCell id="M_QFJIrPNWLJ5PNfMRwV-66" value="0,0" style="text;html=1;align=center;verticalAlign=middle;whiteSpace=wrap;rounded=0;" vertex="1" parent="1">
          <mxGeometry x="510" y="315" width="60" height="30" as="geometry" />
        </mxCell>
        <mxCell id="M_QFJIrPNWLJ5PNfMRwV-67" value="0,0" style="text;html=1;align=center;verticalAlign=middle;whiteSpace=wrap;rounded=0;" vertex="1" parent="1">
          <mxGeometry x="90" y="185" width="60" height="30" as="geometry" />
        </mxCell>
        <mxCell id="M_QFJIrPNWLJ5PNfMRwV-68" value="0,0" style="text;html=1;align=center;verticalAlign=middle;whiteSpace=wrap;rounded=0;" vertex="1" parent="1">
          <mxGeometry x="230" y="185" width="60" height="30" as="geometry" />
        </mxCell>
        <mxCell id="M_QFJIrPNWLJ5PNfMRwV-69" value="0,0" style="text;html=1;align=center;verticalAlign=middle;whiteSpace=wrap;rounded=0;" vertex="1" parent="1">
          <mxGeometry x="370" y="185" width="60" height="30" as="geometry" />
        </mxCell>
        <mxCell id="M_QFJIrPNWLJ5PNfMRwV-70" value="0,0" style="text;html=1;align=center;verticalAlign=middle;whiteSpace=wrap;rounded=0;" vertex="1" parent="1">
          <mxGeometry x="510" y="185" width="60" height="30" as="geometry" />
        </mxCell>
        <mxCell id="M_QFJIrPNWLJ5PNfMRwV-71" value="0,0" style="text;html=1;align=center;verticalAlign=middle;whiteSpace=wrap;rounded=0;" vertex="1" parent="1">
          <mxGeometry x="650" y="185" width="60" height="30" as="geometry" />
        </mxCell>
        <mxCell id="M_QFJIrPNWLJ5PNfMRwV-72" value="0,0" style="text;html=1;align=center;verticalAlign=middle;whiteSpace=wrap;rounded=0;" vertex="1" parent="1">
          <mxGeometry x="370" y="75" width="60" height="30" as="geometry" />
        </mxCell>
      </root>
    </mxGraphModel>
  </diagram>
</mxfile>
